<mxfile host="app.diagrams.net" modified="2024-01-23T07:39:25.152Z" agent="Mozilla/5.0 (Macintosh; Intel Mac OS X 10_15_7) AppleWebKit/537.36 (KHTML, like Gecko) Chrome/120.0.0.0 Safari/537.36" etag="l_AoclABul_ACO2B--5E" version="22.1.20" type="github">
  <diagram name="第 1 页" id="IvLhAiH7EyRF6yPdtCSv">
    <mxGraphModel dx="1434" dy="386" grid="1" gridSize="10" guides="1" tooltips="1" connect="1" arrows="1" fold="1" page="0" pageScale="1" pageWidth="827" pageHeight="1169" math="0" shadow="0">
      <root>
        <mxCell id="0" />
        <mxCell id="1" parent="0" />
        <mxCell id="fokVRQq-qGCGtbH7lqMj-41" value="" style="edgeStyle=orthogonalEdgeStyle;rounded=0;orthogonalLoop=1;jettySize=auto;html=1;fontColor=#3399FF;strokeColor=#3399FF;" edge="1" parent="1" source="fokVRQq-qGCGtbH7lqMj-39" target="fokVRQq-qGCGtbH7lqMj-40">
          <mxGeometry relative="1" as="geometry" />
        </mxCell>
        <mxCell id="fokVRQq-qGCGtbH7lqMj-39" value="" style="rounded=0;whiteSpace=wrap;html=1;dashed=1;strokeColor=#66B2FF;strokeWidth=2;" vertex="1" parent="1">
          <mxGeometry x="80" y="810" width="520" height="220" as="geometry" />
        </mxCell>
        <mxCell id="fokVRQq-qGCGtbH7lqMj-38" value="" style="edgeStyle=orthogonalEdgeStyle;rounded=0;orthogonalLoop=1;jettySize=auto;html=1;strokeColor=#3399FF;" edge="1" parent="1" source="fokVRQq-qGCGtbH7lqMj-36" target="fokVRQq-qGCGtbH7lqMj-37">
          <mxGeometry relative="1" as="geometry" />
        </mxCell>
        <mxCell id="fokVRQq-qGCGtbH7lqMj-36" value="" style="rounded=0;whiteSpace=wrap;html=1;dashed=1;strokeColor=#66B2FF;strokeWidth=2;" vertex="1" parent="1">
          <mxGeometry x="80" y="620" width="520" height="180" as="geometry" />
        </mxCell>
        <mxCell id="fokVRQq-qGCGtbH7lqMj-35" value="" style="edgeStyle=orthogonalEdgeStyle;rounded=0;orthogonalLoop=1;jettySize=auto;html=1;strokeColor=#3399FF;" edge="1" parent="1" source="fokVRQq-qGCGtbH7lqMj-31" target="fokVRQq-qGCGtbH7lqMj-34">
          <mxGeometry relative="1" as="geometry" />
        </mxCell>
        <mxCell id="fokVRQq-qGCGtbH7lqMj-31" value="" style="rounded=0;whiteSpace=wrap;html=1;dashed=1;strokeColor=#66B2FF;strokeWidth=2;" vertex="1" parent="1">
          <mxGeometry x="200" y="550" width="280" height="60" as="geometry" />
        </mxCell>
        <mxCell id="fokVRQq-qGCGtbH7lqMj-5" value="" style="edgeStyle=orthogonalEdgeStyle;rounded=0;orthogonalLoop=1;jettySize=auto;html=1;" edge="1" parent="1" source="fokVRQq-qGCGtbH7lqMj-3" target="fokVRQq-qGCGtbH7lqMj-4">
          <mxGeometry relative="1" as="geometry" />
        </mxCell>
        <mxCell id="fokVRQq-qGCGtbH7lqMj-3" value="简历线索页面" style="rounded=0;whiteSpace=wrap;html=1;fillColor=#d5e8d4;strokeColor=#82b366;" vertex="1" parent="1">
          <mxGeometry x="280" y="480" width="120" height="40" as="geometry" />
        </mxCell>
        <mxCell id="fokVRQq-qGCGtbH7lqMj-7" value="" style="edgeStyle=orthogonalEdgeStyle;rounded=0;orthogonalLoop=1;jettySize=auto;html=1;" edge="1" parent="1" source="fokVRQq-qGCGtbH7lqMj-4" target="fokVRQq-qGCGtbH7lqMj-6">
          <mxGeometry relative="1" as="geometry" />
        </mxCell>
        <mxCell id="fokVRQq-qGCGtbH7lqMj-9" value="" style="edgeStyle=orthogonalEdgeStyle;rounded=0;orthogonalLoop=1;jettySize=auto;html=1;" edge="1" parent="1" source="fokVRQq-qGCGtbH7lqMj-4" target="fokVRQq-qGCGtbH7lqMj-8">
          <mxGeometry relative="1" as="geometry" />
        </mxCell>
        <mxCell id="fokVRQq-qGCGtbH7lqMj-10" value="" style="edgeStyle=orthogonalEdgeStyle;rounded=0;orthogonalLoop=1;jettySize=auto;html=1;" edge="1" parent="1" source="fokVRQq-qGCGtbH7lqMj-4" target="fokVRQq-qGCGtbH7lqMj-8">
          <mxGeometry relative="1" as="geometry" />
        </mxCell>
        <mxCell id="fokVRQq-qGCGtbH7lqMj-11" value="" style="edgeStyle=orthogonalEdgeStyle;rounded=0;orthogonalLoop=1;jettySize=auto;html=1;" edge="1" parent="1" source="fokVRQq-qGCGtbH7lqMj-4" target="fokVRQq-qGCGtbH7lqMj-8">
          <mxGeometry relative="1" as="geometry" />
        </mxCell>
        <mxCell id="fokVRQq-qGCGtbH7lqMj-13" style="edgeStyle=orthogonalEdgeStyle;rounded=0;orthogonalLoop=1;jettySize=auto;html=1;" edge="1" parent="1" source="fokVRQq-qGCGtbH7lqMj-4" target="fokVRQq-qGCGtbH7lqMj-12">
          <mxGeometry relative="1" as="geometry" />
        </mxCell>
        <mxCell id="fokVRQq-qGCGtbH7lqMj-4" value="查询职位（透传筛选项）" style="rounded=0;whiteSpace=wrap;html=1;fillColor=#dae8fc;strokeColor=#6c8ebf;" vertex="1" parent="1">
          <mxGeometry x="240" y="560" width="200" height="40" as="geometry" />
        </mxCell>
        <mxCell id="fokVRQq-qGCGtbH7lqMj-15" value="" style="edgeStyle=orthogonalEdgeStyle;rounded=0;orthogonalLoop=1;jettySize=auto;html=1;" edge="1" parent="1" source="fokVRQq-qGCGtbH7lqMj-6" target="fokVRQq-qGCGtbH7lqMj-14">
          <mxGeometry relative="1" as="geometry" />
        </mxCell>
        <mxCell id="fokVRQq-qGCGtbH7lqMj-20" value="DB" style="edgeLabel;html=1;align=center;verticalAlign=middle;resizable=0;points=[];fontSize=20;" vertex="1" connectable="0" parent="fokVRQq-qGCGtbH7lqMj-15">
          <mxGeometry x="-0.1333" y="2" relative="1" as="geometry">
            <mxPoint as="offset" />
          </mxGeometry>
        </mxCell>
        <mxCell id="fokVRQq-qGCGtbH7lqMj-6" value="查询主投" style="rounded=0;whiteSpace=wrap;html=1;fillColor=#fff2cc;strokeColor=#d6b656;" vertex="1" parent="1">
          <mxGeometry x="120" y="680" width="120" height="40" as="geometry" />
        </mxCell>
        <mxCell id="fokVRQq-qGCGtbH7lqMj-17" value="" style="edgeStyle=orthogonalEdgeStyle;rounded=0;orthogonalLoop=1;jettySize=auto;html=1;" edge="1" parent="1" source="fokVRQq-qGCGtbH7lqMj-8" target="fokVRQq-qGCGtbH7lqMj-16">
          <mxGeometry relative="1" as="geometry" />
        </mxCell>
        <mxCell id="fokVRQq-qGCGtbH7lqMj-21" value="ES" style="edgeLabel;html=1;align=center;verticalAlign=middle;resizable=0;points=[];fontSize=20;" vertex="1" connectable="0" parent="fokVRQq-qGCGtbH7lqMj-17">
          <mxGeometry x="-0.2" y="2" relative="1" as="geometry">
            <mxPoint as="offset" />
          </mxGeometry>
        </mxCell>
        <mxCell id="fokVRQq-qGCGtbH7lqMj-8" value="查询自主添加" style="rounded=0;whiteSpace=wrap;html=1;fillColor=#ffe6cc;strokeColor=#d79b00;" vertex="1" parent="1">
          <mxGeometry x="285" y="680" width="110" height="40" as="geometry" />
        </mxCell>
        <mxCell id="fokVRQq-qGCGtbH7lqMj-19" value="" style="edgeStyle=orthogonalEdgeStyle;rounded=0;orthogonalLoop=1;jettySize=auto;html=1;" edge="1" parent="1" source="fokVRQq-qGCGtbH7lqMj-12" target="fokVRQq-qGCGtbH7lqMj-18">
          <mxGeometry relative="1" as="geometry" />
        </mxCell>
        <mxCell id="fokVRQq-qGCGtbH7lqMj-22" value="ES" style="edgeLabel;html=1;align=center;verticalAlign=middle;resizable=0;points=[];fontSize=20;" vertex="1" connectable="0" parent="fokVRQq-qGCGtbH7lqMj-19">
          <mxGeometry x="-0.1833" y="-2" relative="1" as="geometry">
            <mxPoint as="offset" />
          </mxGeometry>
        </mxCell>
        <mxCell id="fokVRQq-qGCGtbH7lqMj-12" value="查询付费简历" style="rounded=0;whiteSpace=wrap;html=1;fillColor=#f8cecc;strokeColor=#b85450;" vertex="1" parent="1">
          <mxGeometry x="440" y="680" width="110" height="40" as="geometry" />
        </mxCell>
        <mxCell id="fokVRQq-qGCGtbH7lqMj-26" style="edgeStyle=orthogonalEdgeStyle;rounded=0;orthogonalLoop=1;jettySize=auto;html=1;entryX=0.5;entryY=0;entryDx=0;entryDy=0;" edge="1" parent="1" source="fokVRQq-qGCGtbH7lqMj-14" target="fokVRQq-qGCGtbH7lqMj-23">
          <mxGeometry relative="1" as="geometry">
            <Array as="points">
              <mxPoint x="180" y="930" />
              <mxPoint x="340" y="930" />
            </Array>
          </mxGeometry>
        </mxCell>
        <mxCell id="fokVRQq-qGCGtbH7lqMj-14" value="主投数据格式转化" style="rounded=0;whiteSpace=wrap;html=1;fillColor=#fff2cc;strokeColor=#d6b656;" vertex="1" parent="1">
          <mxGeometry x="120" y="840" width="120" height="40" as="geometry" />
        </mxCell>
        <mxCell id="fokVRQq-qGCGtbH7lqMj-25" style="edgeStyle=orthogonalEdgeStyle;rounded=0;orthogonalLoop=1;jettySize=auto;html=1;entryX=0.5;entryY=0;entryDx=0;entryDy=0;" edge="1" parent="1" source="fokVRQq-qGCGtbH7lqMj-16" target="fokVRQq-qGCGtbH7lqMj-23">
          <mxGeometry relative="1" as="geometry" />
        </mxCell>
        <mxCell id="fokVRQq-qGCGtbH7lqMj-16" value="自主添加格式转化" style="rounded=0;whiteSpace=wrap;html=1;fillColor=#ffe6cc;strokeColor=#d79b00;" vertex="1" parent="1">
          <mxGeometry x="285" y="840" width="110" height="40" as="geometry" />
        </mxCell>
        <mxCell id="fokVRQq-qGCGtbH7lqMj-27" style="edgeStyle=orthogonalEdgeStyle;rounded=0;orthogonalLoop=1;jettySize=auto;html=1;entryX=0.5;entryY=0;entryDx=0;entryDy=0;" edge="1" parent="1" source="fokVRQq-qGCGtbH7lqMj-18" target="fokVRQq-qGCGtbH7lqMj-23">
          <mxGeometry relative="1" as="geometry">
            <Array as="points">
              <mxPoint x="495" y="930" />
              <mxPoint x="340" y="930" />
            </Array>
          </mxGeometry>
        </mxCell>
        <mxCell id="fokVRQq-qGCGtbH7lqMj-18" value="付费简历格式转化" style="rounded=0;whiteSpace=wrap;html=1;fillColor=#f8cecc;strokeColor=#b85450;" vertex="1" parent="1">
          <mxGeometry x="440" y="840" width="110" height="40" as="geometry" />
        </mxCell>
        <mxCell id="fokVRQq-qGCGtbH7lqMj-23" value="返回体" style="rounded=0;whiteSpace=wrap;html=1;fillColor=#d5e8d4;strokeColor=#82b366;" vertex="1" parent="1">
          <mxGeometry x="280" y="980" width="120" height="40" as="geometry" />
        </mxCell>
        <mxCell id="fokVRQq-qGCGtbH7lqMj-34" value="职位查询必须串联查询，需要作为下游查询的入参" style="whiteSpace=wrap;html=1;strokeColor=#66B2FF;rounded=0;dashed=1;strokeWidth=1;align=left;verticalAlign=top;fontColor=#3399FF;fontStyle=1" vertex="1" parent="1">
          <mxGeometry x="720" y="555" width="140" height="50" as="geometry" />
        </mxCell>
        <mxCell id="fokVRQq-qGCGtbH7lqMj-37" value="数据查询目前为并行查询，以最长耗时为主" style="whiteSpace=wrap;html=1;strokeColor=#66B2FF;rounded=0;dashed=1;strokeWidth=2;verticalAlign=top;align=left;fontColor=#3399FF;fontStyle=1" vertex="1" parent="1">
          <mxGeometry x="720" y="680" width="120" height="60" as="geometry" />
        </mxCell>
        <mxCell id="fokVRQq-qGCGtbH7lqMj-40" value="内存处理，基本耗时可忽略" style="whiteSpace=wrap;html=1;strokeColor=#66B2FF;rounded=0;dashed=1;strokeWidth=2;align=left;verticalAlign=top;fontColor=#3399FF;fontStyle=1" vertex="1" parent="1">
          <mxGeometry x="720" y="890" width="120" height="60" as="geometry" />
        </mxCell>
      </root>
    </mxGraphModel>
  </diagram>
</mxfile>
